<svg xmlns="http://www.w3.org/2000/svg" xmlns:xlink="http://www.w3.org/1999/xlink" width="190.322" height="40" viewBox="0 0 190.322 40">
  <defs>
    <clipPath id="clip-path">
      <rect id="Rectangle_11" data-name="Rectangle 11" width="190.322" height="40" fill="#fff"/>
    </clipPath>
  </defs>
  <g id="Group_404" data-name="Group 404" transform="translate(0)">
    <path id="Path_1" data-name="Path 1" d="M322.08,3.026h-3.129V41.239h26.914V38.272H322.08Z" transform="translate(-228.582 -2.168)" fill="#fff"/>
    <path id="Path_2" data-name="Path 2" d="M467.726,38.218h-24V5.992h24V3.026H440.647V41.239h27.079Z" transform="translate(-315.797 -2.169)" fill="#fff"/>
    <rect id="Rectangle_8" data-name="Rectangle 8" width="14.895" height="2.857" transform="translate(132.259 18.399)" fill="#fff"/>
    <rect id="Rectangle_9" data-name="Rectangle 9" width="30.609" height="2.802" transform="translate(159.713 0.912)" fill="#fff"/>
    <rect id="Rectangle_10" data-name="Rectangle 10" width="3.129" height="31.511" transform="translate(173.453 8.048)" fill="#fff"/>
    <path id="Path_3" data-name="Path 3" d="M44,3.026,26.858,41.239h3.365L45.638,6.192,61.107,41.239h3.365L47.33,3.026Z" transform="translate(-19.249 -2.168)" fill="#fff"/>
    <path id="Path_4" data-name="Path 4" d="M17.142,3.026,0,41.239H3.383L20.19,3.026Z" transform="translate(0 -2.169)" fill="#fff"/>
    <g id="Group_5" data-name="Group 5" transform="translate(0)">
      <g id="Group_4" data-name="Group 4" clip-path="url(#clip-path)">
        <path id="Path_5" data-name="Path 5" d="M198.442,23.294h.271V27.77c0,3.261-2.754,6-5.113,7.359a15.423,15.423,0,0,1-7.8,2.017,15.088,15.088,0,0,1-11.548-4.921,17.437,17.437,0,0,1-4.731-12.195A17.273,17.273,0,0,1,174.2,7.954,15.477,15.477,0,0,1,197.827,9.4l.059.078L200.318,7.5l-.055-.073a18.721,18.721,0,0,0-6.095-5.267A18.142,18.142,0,0,0,185.5,0a19,19,0,0,0-13.656,5.737,19.862,19.862,0,0,0-5.564,14.233A19.865,19.865,0,0,0,171.844,34.2,18.121,18.121,0,0,0,185.571,40,18.992,18.992,0,0,0,195.6,37.3a12.741,12.741,0,0,0,5.826-7.192,37.2,37.2,0,0,0,.318-4.848V20.387H185.4V23.3h.1c3.543-.008,11.229-.018,12.944-.007" transform="translate(-119.167 0.001)" fill="#fff"/>
      </g>
    </g>
  </g>
</svg>
